<?xml version="1.0" encoding="UTF-8"?><svg id="Calque_2" xmlns="http://www.w3.org/2000/svg" viewBox="0 0 4399.22 1462.83"><defs><style>.cls-1{fill:#1e666e;}.cls-2{fill:none;}.cls-3{fill:#e0c463;}.cls-4{fill:#2fa2ae;}.cls-5{fill:#e0a100;}</style></defs><g id="croquis"><rect class="cls-2" width="4399.22" height="1462.83"/><path class="cls-1" d="M1838.36,332.3v685.88h235.43v115.31h-357.95V332.3h122.52Z"/><path class="cls-4" d="M3112.3,448.23v-115.06h-441.06v799.44h441.06v-115.06h-318.81v-251.71h254.83v-115.06h-254.83v-202.55h318.81Z"/><path class="cls-4" d="M4069.1,448.36v-115.06h-441.06v799.44h441.06v-115.06h-318.81v-251.71h254.83v-115.06h-254.83v-202.55h318.81Z"/><path class="cls-4" d="M3309.02,787.55l-262.48-454.25h139.03l184.58,320.01,184.57-320.01h139.03l-262.48,454.25v345.18h-122.26v-345.18Z"/><path class="cls-5" d="M1337.34,681.68V234.67c40.5-.95,159.16,1.53,275.45,82.71,129.92,90.69,150.72,219.25,160.9,255.96-152.02,36.11-284.34,72.23-436.36,108.35Z"/><path class="cls-3" d="M1337.34,711.33l395.34-95.49c9.71,36.51,23.15,111.16,10.23,185.99-10.09,58.47-19.6,98.99-68.59,167.69-120.74-102.13-193.41-151.55-336.98-258.19Z"/><path class="cls-1" d="M1339.03,744.12l315.22,257c-23.19,29.81-74.5,85.69-141.9,120.68-52.66,27.34-90.67,44.29-175.01,46.84,8.27-157.93,3.66-245.69,1.7-424.51Z"/><path class="cls-4" d="M1312.01,1168.64c-251.88,0-437.01-188.91-437.01-435.75s185.13-435.76,437.01-435.76"/><path class="cls-1" d="M796.14,328.21v801.19h122.56V328.21h-122.56ZM452.63,328.21h-122.51v801.19h122.51v-368.78h288.75v-115.28h-288.75v-317.14Z"/><path class="cls-1" d="M2559.11,410.4c-88.9-66.07-186.19-78.11-297.87-78.11h-168.16v801.19h122.51V447.61h52.84c58.88,0,144.14,4.8,213.81,55.24,57.64,42.05,108.12,124.95,108.12,230.64s-54.08,186.19-109.32,228.24c-68.9,51.09-150.77,56.31-210.64,56.44v115.28c106.24-.77,191.07-13.1,281.51-76.82,105.68-74.47,160.97-189.79,160.97-323.13s-56.48-249.82-153.77-323.09Z"/></g></svg>