<?xml version="1.0" encoding="UTF-8"?> <!--Generator: Apple Native CoreSVG 326--> <!DOCTYPE svg PUBLIC "-//W3C//DTD SVG 1.1//EN"        "http://www.w3.org/Graphics/SVG/1.1/DTD/svg11.dtd"> <svg version="1.1" xmlns="http://www.w3.org/2000/svg" xmlns:xlink="http://www.w3.org/1999/xlink" viewBox="0 0 37.3535 46.1182">  <g>   <rect height="46.1182" opacity="0" width="37.3535" x="0" y="0"/>   <path d="M18.5059 46.1182C19.7754 46.1182 20.6787 45.2393 20.6787 43.9697L20.6787 11.8164L20.4346 4.54102L19.043 5.0293L27.8076 14.624L33.374 20.0928C33.7646 20.4834 34.3262 20.6787 34.9121 20.6787C36.1328 20.6787 37.0117 19.751 37.0117 18.5547C37.0117 17.9688 36.8164 17.4561 36.3525 16.9678L20.1416 0.732422C19.6777 0.244141 19.1162 0 18.5059 0C17.8955 0 17.334 0.244141 16.8701 0.732422L0.683594 16.9678C0.219727 17.4561 0 17.9688 0 18.5547C0 19.751 0.878906 20.6787 2.09961 20.6787C2.68555 20.6787 3.27148 20.4834 3.6377 20.0928L9.2041 14.624L17.9443 5.0293L16.5771 4.54102L16.333 11.8164L16.333 43.9697C16.333 45.2393 17.2363 46.1182 18.5059 46.1182Z" fill="white" fill-opacity="0.85"/>  </g> </svg>