<?xml version="1.0" encoding="UTF-8"?> <!--Generator: Apple Native CoreSVG 326--> <!DOCTYPE svg PUBLIC "-//W3C//DTD SVG 1.1//EN"        "http://www.w3.org/Graphics/SVG/1.1/DTD/svg11.dtd"> <svg version="1.1" xmlns="http://www.w3.org/2000/svg" xmlns:xlink="http://www.w3.org/1999/xlink" viewBox="0 0 54.1504 53.6377">  <g>   <rect height="53.6377" opacity="0" width="54.1504" x="0" y="0"/>   <path d="M15.0146 53.6377C16.2109 53.6377 17.041 53.0029 18.5303 51.6846L26.9531 44.1895L42.627 44.1895C49.9023 44.1895 53.8086 40.1611 53.8086 33.0078L53.8086 14.3066C53.8086 7.15332 49.9023 3.125 42.627 3.125L11.1816 3.125C3.90625 3.125 0 7.12891 0 14.3066L0 33.0078C0 40.1855 3.90625 44.1895 11.1816 44.1895L12.3535 44.1895L12.3535 50.5371C12.3535 52.417 13.3057 53.6377 15.0146 53.6377ZM16.0156 49.1699L16.0156 42.0898C16.0156 40.7715 15.5029 40.2588 14.1846 40.2588L11.1816 40.2588C6.25 40.2588 3.93066 37.7441 3.93066 32.9834L3.93066 14.3066C3.93066 9.5459 6.25 7.05566 11.1816 7.05566L42.627 7.05566C47.5342 7.05566 49.8779 9.5459 49.8779 14.3066L49.8779 32.9834C49.8779 37.7441 47.5342 40.2588 42.627 40.2588L26.8066 40.2588C25.4395 40.2588 24.7559 40.4541 23.8281 41.4062Z" fill="white" fill-opacity="0.85"/>   <path d="M15.6006 23.6572C15.6006 24.8535 16.4551 25.6592 17.7002 25.6592L24.8779 25.6592L24.8779 32.8613C24.8779 34.082 25.708 34.9365 26.8799 34.9365C28.125 34.9365 28.9551 34.1064 28.9551 32.8613L28.9551 25.6592L36.1572 25.6592C37.3779 25.6592 38.2324 24.8535 38.2324 23.6572C38.2324 22.4365 37.4023 21.582 36.1572 21.582L28.9551 21.582L28.9551 14.4043C28.9551 13.1592 28.125 12.3047 26.8799 12.3047C25.708 12.3047 24.8779 13.1592 24.8779 14.4043L24.8779 21.582L17.7002 21.582C16.4551 21.582 15.6006 22.4365 15.6006 23.6572Z" fill="white" fill-opacity="0.85"/>  </g> </svg>