<?xml version="1.0" encoding="UTF-8"?><svg id="Calque_2" xmlns="http://www.w3.org/2000/svg" viewBox="0 0 156.84 156.84"><defs><style>.cls-1{fill:#1e666e;}.cls-2{fill:none;}.cls-3{fill:#e0c463;}.cls-4{fill:#2fa2ae;}.cls-5{fill:#e0a100;}</style></defs><g id="croquis"><path class="cls-5" d="M80.24,75.62V12.78c5.69-.13,22.37.22,38.72,11.63,18.26,12.75,21.19,30.82,22.62,35.98-21.37,5.08-39.97,10.15-61.34,15.23Z"/><path class="cls-3" d="M80.24,79.79l55.57-13.42c1.36,5.13,3.25,15.63,1.44,26.15-1.42,8.22-2.75,13.92-9.64,23.57-16.97-14.36-27.19-21.3-47.37-36.29Z"/><path class="cls-1" d="M80.48,84.4l44.31,36.13c-3.26,4.19-10.47,12.05-19.95,16.96-7.4,3.84-12.75,6.23-24.6,6.58,1.16-22.2.51-34.54.24-59.67Z"/><path class="cls-4" d="M76.68,144.07c-35.41,0-61.43-26.56-61.43-61.25s26.02-61.25,61.43-61.25"/><rect class="cls-2" width="156.84" height="156.84"/></g></svg>